<?xml version="1.0" standalone="no"?>
<!DOCTYPE svg PUBLIC "-//W3C//DTD SVG 20010904//EN"
 "http://www.w3.org/TR/2001/REC-SVG-20010904/DTD/svg10.dtd">
<svg version="1.0" xmlns="http://www.w3.org/2000/svg"
 width="1024.000000pt" height="1024.000000pt" viewBox="0 0 1024.000000 1024.000000"
 preserveAspectRatio="xMidYMid meet">

<g transform="translate(0.000000,1024.000000) scale(0.100000,-0.100000)"
fill="#000000" stroke="none">
<path d="M4820 7909 c-47 -5 -152 -23 -235 -40 -514 -105 -993 -363 -1375
-740 l-95 -94 958 -3 c936 -2 959 -2 986 17 15 11 78 45 141 75 l113 56 -852
0 c-488 0 -851 4 -851 9 0 19 284 198 430 270 369 183 719 259 1145 248 287
-7 504 -47 770 -142 136 -48 379 -170 495 -248 80 -53 109 -67 175 -82 143
-31 282 -88 443 -182 23 -14 42 -21 42 -15 0 15 -159 169 -265 257 -392 322
-804 509 -1310 597 -95 16 -173 21 -375 23 -140 2 -293 -1 -340 -6z"/>
<path d="M5985 7209 c-509 -27 -964 -253 -1294 -643 -131 -155 -242 -342 -322
-544 -30 -75 -90 -295 -104 -378 l-6 -42 68 -4 c130 -7 248 -89 309 -213 27
-55 29 -69 29 -170 0 -100 -3 -115 -28 -166 -66 -134 -174 -209 -318 -217
l-79 -5 6 -36 c50 -292 126 -492 269 -707 220 -330 535 -575 892 -693 65 -22
163 -49 218 -60 108 -21 245 -37 245 -28 0 3 -24 13 -52 22 -29 10 -98 40
-152 68 -309 157 -565 469 -682 830 -76 237 -103 406 -111 692 -14 541 71
1025 246 1390 106 221 210 372 360 522 174 174 422 319 624 364 59 13 87 30
45 27 -13 0 -86 -4 -163 -9z"/>
<path d="M6225 7114 l-60 -13 60 6 c77 9 265 11 265 3 0 -3 21 -3 48 -1 l47 5
-40 7 c-63 12 -254 8 -320 -7z"/>
<path d="M6026 7065 c-67 -24 -107 -46 -56 -31 14 5 39 10 55 12 17 3 44 7 61
10 18 2 31 10 31 19 0 20 -9 19 -91 -10z"/>
<path d="M6720 7070 c0 -5 10 -10 23 -10 18 0 19 2 7 10 -19 13 -30 13 -30 0z"/>
<path d="M6180 7062 c0 -4 9 -8 20 -9 11 -1 18 2 15 8 -7 11 -35 12 -35 1z"/>
<path d="M6820 7031 c48 -26 52 -30 28 -31 -52 0 -28 -17 33 -24 44 -4 67 -12
80 -27 9 -11 21 -20 26 -20 4 -1 10 -3 13 -6 3 -4 -1 -3 -7 1 -8 4 -13 1 -13
-8 0 -10 9 -16 21 -16 15 0 19 5 15 15 -6 17 9 21 19 5 3 -6 21 -17 38 -26
l32 -15 -25 20 c-48 40 -237 141 -290 155 -14 4 0 -7 30 -23z"/>
<path d="M5840 6979 c-116 -63 -196 -124 -306 -234 -131 -130 -268 -334 -344
-513 -39 -92 -91 -232 -86 -232 3 0 25 28 49 63 61 86 200 215 292 272 90 56
219 114 330 146 71 21 100 24 265 24 170 0 193 -2 280 -27 231 -64 433 -195
590 -381 l63 -76 71 61 c183 157 468 418 415 380 -8 -7 -24 -13 -35 -15 -37
-6 -65 -28 -59 -46 5 -18 -28 -54 -98 -106 l-39 -29 -41 50 c-293 349 -658
529 -1037 510 -203 -9 -361 -60 -534 -171 -63 -40 -71 -42 -57 -16 9 16 8 18
-7 14 -15 -4 -18 1 -14 31 2 20 10 36 17 36 16 0 62 36 55 44 -9 9 -50 -5 -44
-15 3 -5 0 -9 -5 -9 -17 0 -13 20 6 27 9 4 30 21 46 40 23 26 34 32 53 27 15
-4 24 -2 24 5 0 6 -5 11 -12 11 -15 0 -1 13 17 16 7 1 12 -3 9 -9 -5 -15 40
-37 56 -27 9 5 9 9 1 14 -6 4 -15 5 -19 2 -5 -3 -9 1 -9 9 0 8 4 13 8 12 4 -1
14 6 21 15 7 10 24 19 38 21 19 3 25 10 25 28 -1 28 27 48 67 49 20 0 26 5 25
20 -1 11 -1 20 -2 20 0 0 -34 -19 -75 -41z m-425 -439 c4 -7 13 -7 26 0 35 19
20 -5 -42 -65 -33 -33 -57 -52 -53 -41 6 16 4 17 -13 7 l-21 -11 19 40 c12 25
24 37 33 34 8 -3 16 4 20 20 7 27 20 34 31 16z m1990 -120 c3 -5 1 -10 -4 -10
-6 0 -11 5 -11 10 0 6 2 10 4 10 3 0 8 -4 11 -10z"/>
<path d="M2922 6798 c-95 -128 -131 -185 -211 -340 -322 -617 -385 -1320 -179
-1988 27 -90 79 -220 87 -220 8 0 98 79 372 330 123 113 241 220 262 238 l38
32 427 0 427 1 -35 27 c-19 14 -56 48 -81 74 l-45 48 -380 0 -379 0 -165 -151
c-91 -82 -200 -182 -242 -220 -52 -47 -79 -66 -83 -57 -38 109 -80 348 -95
541 -20 264 22 590 113 887 l14 45 137 3 136 3 0 69 0 70 -106 0 c-120 0 -116
-5 -68 92 20 40 29 47 56 50 l33 3 2 205 2 205 401 3 401 2 -3 68 -3 67 -382
3 -382 3 -69 -93z"/>
<path d="M3953 6883 l-63 -4 0 -64 0 -65 65 0 65 0 0 70 c0 39 -1 69 -2 68 -2
-1 -31 -3 -65 -5z m-30 -94 c-3 -10 -9 -19 -14 -19 -11 0 -12 44 -2 53 10 11
21 -13 16 -34z m40 -6 c-9 -23 -20 -14 -15 13 3 17 7 22 12 13 5 -7 6 -18 3
-26z"/>
<path d="M4488 6883 l-338 -3 0 -65 0 -65 273 0 c258 0 275 1 291 19 10 11 15
24 11 30 -3 6 0 9 7 6 7 -3 33 15 58 40 24 25 42 44 40 43 -3 -2 -157 -4 -342
-5z m80 -18 c-18 -19 -314 -25 -343 -7 -16 9 17 12 163 11 101 0 182 -2 180
-4z m166 -3 c9 -14 -14 -20 -59 -15 -22 2 -50 4 -62 4 -12 0 -24 3 -27 8 -3 4
28 9 68 10 41 1 77 -2 80 -7z m-233 -46 c4 2 12 -3 19 -11 10 -12 9 -15 -4
-15 -10 0 -14 -4 -11 -10 6 -10 -16 -13 -85 -11 -102 2 -122 5 -127 18 -3 7
-9 10 -14 7 -5 -3 -6 2 -3 10 7 17 123 26 183 14 19 -4 38 -5 42 -2z m175 6
c5 -4 10 -17 10 -29 0 -18 -3 -20 -16 -10 -22 17 -29 30 -24 39 6 10 16 10 30
0z m-106 -19 c0 -10 -4 -14 -8 -8 -4 6 -11 13 -16 18 -5 4 -2 7 7 7 10 0 17
-8 17 -17z m-17 -30 c-7 -2 -19 -2 -25 0 -7 3 -2 5 12 5 14 0 19 -2 13 -5z"/>
<path d="M7173 6823 c15 -16 29 -39 29 -49 1 -11 15 -33 31 -49 16 -17 27 -25
23 -18 -3 6 -3 14 1 16 11 7 28 -14 28 -33 0 -10 10 -15 28 -15 15 -1 27 2 27
6 0 6 -94 91 -160 145 l-35 28 28 -31z"/>
<path d="M5826 6821 c-5 -7 -3 -18 3 -24 14 -14 20 -6 11 17 -5 15 -9 16 -14
7z"/>
<path d="M5801 6784 c0 -11 3 -14 6 -6 3 7 2 16 -1 19 -3 4 -6 -2 -5 -13z"/>
<path d="M7357 6645 c6 -11 8 -26 5 -34 -3 -10 0 -12 10 -8 24 9 72 -46 63
-72 -4 -12 -2 -21 4 -21 6 0 11 5 11 11 0 6 7 8 16 5 19 -7 -30 55 -81 104
-23 22 -34 27 -28 15z"/>
<path d="M3140 6013 l0 -593 417 0 416 0 56 58 c31 32 67 66 81 75 23 15 -3
16 -397 16 l-423 1 0 440 0 440 580 0 579 0 55 73 55 72 -157 2 c-86 2 -406 4
-710 5 l-552 3 0 -592z"/>
<path d="M7486 6483 c-6 -14 -5 -15 5 -6 7 7 10 15 7 18 -3 3 -9 -2 -12 -12z"/>
<path d="M7525 6342 c-17 -15 -52 -46 -79 -70 l-49 -42 33 -83 c18 -45 50
-134 71 -197 40 -123 49 -137 23 -36 -11 42 -14 83 -11 129 7 85 3 99 -28 87
-26 -10 -35 -5 -35 23 0 13 5 17 16 13 9 -3 12 -2 9 5 -4 6 -13 8 -21 5 -8 -3
-19 7 -28 24 -14 30 -14 30 32 67 52 41 115 103 104 103 -4 0 -21 -13 -37 -28z"/>
<path d="M7288 6353 c7 -3 16 -2 19 1 4 3 -2 6 -13 5 -11 0 -14 -3 -6 -6z"/>
<path d="M7574 6289 c-8 -36 -6 -51 9 -81 21 -46 29 -48 21 -8 -4 20 -2 30 5
30 8 0 10 -8 6 -20 -4 -14 -2 -20 9 -20 8 0 18 -9 21 -21 4 -11 9 -19 11 -16
4 4 -35 107 -58 151 l-15 28 -9 -43z"/>
<path d="M3425 6252 l0 -57 138 -3 137 -3 0 61 0 60 -137 0 -138 0 0 -58z"/>
<path d="M3810 6250 l0 -60 248 0 249 0 13 28 c7 15 19 42 26 60 l14 32 -275
0 -275 0 0 -60z"/>
<path d="M7490 6250 c0 -5 4 -10 9 -10 6 0 13 5 16 10 3 6 -1 10 -9 10 -9 0
-16 -4 -16 -10z"/>
<path d="M7546 6212 c-3 -5 1 -9 9 -9 8 0 12 4 9 9 -3 4 -7 8 -9 8 -2 0 -6 -4
-9 -8z"/>
<path d="M7470 6199 c0 -5 5 -7 10 -4 6 3 10 8 10 11 0 2 -4 4 -10 4 -5 0 -10
-5 -10 -11z"/>
<path d="M7666 6115 c8 -32 8 -46 -1 -115 -5 -33 -3 -41 4 -30 6 8 11 26 11
40 0 19 2 22 9 10 6 -8 7 -18 4 -22 -2 -5 1 -15 7 -23 7 -8 10 -22 6 -30 -3
-8 -2 -15 3 -15 13 0 34 -87 33 -134 0 -22 -2 -63 -5 -89 -2 -26 -1 -62 3 -80
7 -26 8 -21 9 31 1 69 17 83 26 25 9 -50 13 -62 14 -38 2 54 -83 397 -118 475
-11 24 -11 24 -5 -5z"/>
<path d="M3420 6005 l0 -55 240 0 240 0 0 55 0 55 -240 0 -240 0 0 -55z"/>
<path d="M4020 6005 l0 -55 85 0 85 0 0 55 0 55 -85 0 -85 0 0 -55z"/>
<path d="M6440 5933 l-175 -3 0 -367 0 -366 177 184 177 184 1 188 c0 103 -1
186 -2 185 -2 -1 -82 -4 -178 -5z m151 -73 c20 -58 26 -155 9 -165 -6 -3 -8
-22 -6 -41 3 -19 1 -32 -4 -29 -4 3 -11 -2 -14 -11 -4 -9 -2 -13 5 -8 20 12
-9 -33 -34 -53 -23 -18 -46 -60 -27 -48 6 3 10 1 10 -5 0 -16 -120 -140 -134
-139 -6 0 -6 3 2 6 16 6 5 23 -15 23 -12 0 -14 -7 -10 -32 3 -18 3 -27 0 -20
-2 6 -9 10 -14 6 -5 -3 -9 -1 -9 4 0 5 -9 12 -21 15 -18 5 -19 8 -8 29 12 22
11 22 -6 8 -10 -8 -16 -10 -12 -3 9 14 -2 45 -14 37 -5 -3 -9 2 -9 11 0 9 5
13 10 10 6 -4 10 6 10 22 0 22 -2 25 -10 13 -6 -10 -8 25 -6 103 2 69 9 124
15 130 14 14 15 117 1 117 -5 0 -10 18 -10 40 l0 41 141 -3 141 -3 19 -55z"/>
<path d="M6471 5774 c0 -11 3 -14 6 -6 3 7 2 16 -1 19 -3 4 -6 -2 -5 -13z"/>
<path d="M6475 5680 c-3 -6 1 -7 9 -4 18 7 21 14 7 14 -6 0 -13 -4 -16 -10z"/>
<path d="M6500 5591 c0 -7 -5 -9 -12 -5 -7 5 -8 3 -3 -5 5 -9 10 -10 18 -2 6
6 8 14 4 18 -4 3 -7 1 -7 -6z"/>
<path d="M6450 5450 c0 -5 7 -10 15 -10 8 0 15 5 15 10 0 6 -7 10 -15 10 -8 0
-15 -4 -15 -10z"/>
<path d="M2827 5903 c-10 -10 -8 -1083 2 -1083 5 0 47 35 93 78 47 42 125 114
175 160 l91 82 431 0 431 0 13 -32 c39 -92 133 -153 237 -152 76 1 125 22 183
80 91 92 86 281 -11 371 -129 120 -354 71 -408 -89 l-11 -33 -456 -5 -456 -5
-90 -83 -91 -83 0 400 0 401 -63 0 c-35 0 -67 -3 -70 -7z m1531 -589 c12 -8
29 -28 37 -44 40 -77 -12 -170 -93 -170 -70 0 -111 42 -112 114 0 41 5 53 34
82 27 27 42 34 73 34 21 0 49 -7 61 -16z"/>
<path d="M7085 5863 c-201 -48 -352 -86 -358 -90 -5 -3 14 -28 43 -55 28 -27
50 -53 48 -58 -2 -5 -73 -80 -158 -167 -85 -87 -258 -265 -383 -396 -126 -130
-232 -237 -237 -237 -4 0 -74 68 -157 150 l-149 150 -293 -305 -293 -306 42
-56 42 -55 42 43 c24 24 136 142 251 262 l209 218 154 -153 153 -153 81 85
c260 273 793 820 799 820 4 0 30 -25 58 -56 29 -31 53 -55 55 -53 11 15 90
419 82 418 -6 -1 -20 -3 -31 -6z"/>
<path d="M7569 5856 c-1 -9 -3 -20 -4 -26 -1 -5 -3 -13 -4 -17 -1 -5 -6 -1
-11 7 -14 22 -12 4 9 -101 34 -165 53 -365 49 -505 l-3 -131 40 13 c22 7 70
22 108 34 l67 21 -1 132 c-1 73 -5 161 -8 197 -4 36 -5 -22 -3 -127 4 -161 3
-193 -9 -193 -8 -1 -40 -2 -71 -4 l-57 -3 -1 151 c-1 83 -2 169 -2 191 0 33
-1 35 -5 10 -3 -16 -9 -33 -15 -36 -6 -4 -10 -43 -9 -97 1 -54 -2 -93 -9 -97
-6 -4 -10 20 -11 72 0 43 -3 109 -8 146 -7 69 -1 92 18 60 9 -16 10 -16 11 5
0 12 5 22 11 22 6 0 9 -7 5 -15 -3 -8 -1 -15 4 -15 6 0 10 6 10 13 0 14 -20
47 -20 33 0 -5 -6 -3 -14 3 -16 14 -17 51 -1 51 5 0 2 5 -8 11 -10 6 -14 15
-10 22 13 21 11 48 -4 43 -7 -3 -13 -1 -13 3 0 5 7 11 15 15 19 7 19 22 1 29
-11 4 -13 1 -9 -11 6 -14 5 -14 -8 -3 -8 8 -13 30 -12 57 1 40 -15 76 -18 40z
m27 -182 c1 -9 0 -13 -4 -10 -3 4 -7 14 -8 22 -1 9 0 13 4 10 3 -4 7 -14 8
-22z m42 -509 c-2 -31 0 -41 10 -38 6 3 12 1 12 -5 0 -9 -22 -22 -37 -22 -4 0
2 127 7 140 6 14 11 -37 8 -75z m78 -30 c-22 -17 -46 -20 -46 -6 0 5 12 12 28
14 15 2 29 5 32 5 3 1 -4 -5 -14 -13z"/>
<path d="M3420 5765 l0 -55 185 0 185 0 0 55 0 55 -185 0 -185 0 0 -55z"/>
<path d="M7640 5711 c0 -5 7 -12 16 -15 14 -5 15 -4 4 9 -14 17 -20 19 -20 6z"/>
<path d="M7793 5585 c0 -22 2 -30 4 -17 2 12 2 30 0 40 -3 9 -5 -1 -4 -23z"/>
<path d="M5750 5413 l0 -167 106 -103 c59 -56 111 -100 117 -96 6 3 7 1 3 -5
-4 -6 8 -28 26 -48 l34 -36 32 28 32 28 0 283 0 283 -162 -2 c-143 -2 -152 -3
-73 -8 75 -5 105 -12 50 -12 -108 0 -155 3 -150 12 3 6 1 10 -4 10 -7 0 -11
-56 -11 -167z m216 115 c4 -7 3 -8 -4 -4 -8 5 -10 2 -6 -8 3 -9 10 -14 14 -11
5 3 12 0 16 -6 5 -9 -1 -10 -20 -5 -16 4 -26 2 -26 -5 0 -7 -15 -10 -39 -7
-25 2 -37 -1 -34 -8 2 -5 -8 -23 -22 -38 -14 -15 -25 -24 -25 -21 0 4 -7 0
-15 -9 -9 -8 -14 -19 -13 -23 1 -4 -1 -18 -6 -30 -14 -41 -26 -24 -26 36 0 44
4 60 16 65 8 3 13 2 10 -3 -3 -5 1 -12 9 -15 12 -4 13 -2 6 13 -6 10 -7 22 -3
26 4 5 2 5 -4 2 -7 -4 -9 4 -6 23 2 16 12 31 21 33 36 10 150 7 157 -5z m101
-129 c1 -50 -2 -67 -10 -62 -9 5 -9 3 0 -8 6 -8 12 -39 12 -70 0 -30 0 -59 1
-64 2 -6 2 -30 1 -54 -1 -35 -4 -42 -17 -37 -8 3 -12 2 -9 -4 3 -6 -1 -10 -10
-10 -9 0 -14 -3 -12 -7 2 -5 -5 -17 -16 -27 -17 -16 -19 -16 -14 -3 8 21 -12
34 -24 16 -6 -11 -13 -8 -34 11 l-25 24 25 26 c19 20 22 29 13 38 -9 9 -8 12
5 12 10 0 21 8 24 18 4 9 14 23 22 30 9 8 10 11 4 7 -8 -4 -13 0 -13 10 0 11
7 15 22 13 16 -2 22 3 23 20 1 13 -2 25 -7 28 -4 3 -5 10 -2 16 4 7 2 8 -4 4
-11 -6 -16 6 -13 27 1 9 -23 9 -32 0 -4 -3 1 -12 11 -20 16 -12 16 -13 0 -7
-10 3 -18 2 -18 -4 0 -15 -43 -23 -55 -10 -7 8 -5 9 7 5 10 -3 19 0 22 9 3 9
10 13 14 10 5 -3 8 5 8 17 -1 15 5 22 16 21 10 -1 15 2 12 7 -3 5 -12 9 -20 9
-9 0 -14 11 -14 33 0 19 3 27 8 20 6 -9 12 -8 24 6 11 13 24 18 37 14 13 -3
21 -1 21 8 0 7 3 9 7 5 5 -4 9 -39 10 -77z m-167 -78 c0 -12 -20 -25 -27 -18
-7 7 6 27 18 27 5 0 9 -4 9 -9z m11 -51 c5 0 4 -9 -3 -20 -15 -24 -28 -26 -28
-5 0 8 -6 15 -12 15 -9 0 -8 4 2 10 13 9 13 10 0 11 -10 0 -8 3 5 8 14 6 21 4
23 -5 2 -8 8 -14 13 -14z m-41 -40 c0 -5 -5 -10 -11 -10 -5 0 -7 5 -4 10 3 6
8 10 11 10 2 0 4 -4 4 -10z"/>
<path d="M5220 4998 l1 -263 179 185 179 185 1 78 0 77 -180 0 -180 0 0 -262z"/>
<path d="M6438 4959 l-177 -184 -1 -322 c0 -301 1 -323 18 -323 45 0 287 126
326 169 15 16 16 61 14 431 l-3 413 -177 -184z"/>
<path d="M2078 5023 c-43 -4 -48 -7 -48 -28 0 -22 3 -23 35 -18 34 5 34 5 41
-36 9 -54 34 -56 34 -2 0 26 5 41 16 45 22 8 34 -1 34 -27 0 -38 12 -67 26
-67 15 0 17 23 8 94 l-7 46 -46 -2 c-25 -1 -67 -3 -93 -5z"/>
<path d="M7640 4964 c-94 -30 -656 -196 -807 -238 -62 -17 -113 -34 -113 -38
0 -4 50 -47 110 -95 61 -48 110 -92 110 -97 0 -15 -73 -107 -141 -177 -130
-134 -288 -233 -470 -293 -130 -44 -205 -56 -340 -56 -231 0 -454 74 -640 211
-132 97 -268 262 -339 410 -35 73 -35 71 2 -116 104 -531 414 -920 846 -1065
174 -58 341 -72 531 -44 368 54 724 273 1010 622 23 28 46 52 49 52 4 0 58
-43 121 -95 63 -52 116 -93 117 -92 2 2 8 104 14 228 8 186 29 601 43 852 4
67 6 66 -103 31z"/>
<path d="M2116 4847 l-68 -10 6 -65 c8 -75 11 -83 31 -76 10 4 12 18 8 53 -5
42 -3 49 15 53 21 6 32 -13 32 -59 0 -16 6 -23 19 -23 17 0 18 5 14 41 -4 29
-2 44 8 50 24 15 28 10 35 -41 5 -41 10 -50 26 -50 16 0 19 5 15 23 -3 12 -9
43 -12 70 -8 53 -4 52 -129 34z"/>
<path d="M5742 4480 l3 -360 67 -15 c38 -8 114 -15 177 -15 l111 0 0 257 0
257 -30 -29 -31 -30 -146 148 c-81 81 -148 147 -150 147 -2 0 -2 -162 -1 -360z"/>
<path d="M3259 4703 c-8 -9 -138 -130 -289 -268 -151 -139 -283 -261 -294
-273 -18 -21 -17 -23 44 -139 70 -133 178 -300 272 -417 l63 -79 3 166 c1 91
1 242 0 336 l-3 171 -62 -56 -63 -55 -17 36 -17 36 104 100 c58 54 113 104
123 109 16 10 17 -15 17 -463 l0 -474 103 -99 c204 -198 416 -348 672 -474
262 -129 485 -203 755 -249 686 -117 1379 35 1970 432 248 166 523 435 684
666 l40 56 -80 -76 c-169 -161 -375 -289 -604 -374 -41 -16 -113 -54 -160 -85
-282 -188 -626 -333 -926 -389 -180 -33 -280 -42 -474 -43 -271 0 -484 33
-739 114 -239 76 -414 159 -623 297 -161 105 -231 162 -365 295 l-103 101 0
557 c0 314 -4 558 -9 558 -5 0 -15 -7 -22 -17z"/>
<path d="M3425 4652 l0 -57 138 -3 137 -3 0 61 0 60 -137 0 -138 0 0 -58z"/>
<path d="M3810 4650 l0 -60 165 0 165 0 0 60 0 60 -165 0 -165 0 0 -60z"/>
<path d="M2225 4680 c-16 -5 -56 -14 -87 -20 -48 -9 -58 -15 -58 -32 0 -17 5
-20 29 -16 41 6 51 -29 16 -55 -24 -18 -32 -46 -18 -60 4 -4 19 4 34 19 17 16
29 22 33 15 4 -6 25 -11 46 -11 31 0 43 5 56 25 15 22 15 33 4 85 -7 33 -15
60 -19 59 -3 0 -19 -5 -36 -9z m20 -81 c0 -31 -3 -34 -30 -34 -26 0 -30 4 -33
32 -3 26 1 32 20 36 37 7 43 2 43 -34z"/>
<path d="M5431 4542 c-85 -90 -141 -157 -138 -165 9 -24 112 -106 198 -158
l84 -50 3 130 c1 72 1 190 0 262 l-3 132 -144 -151z"/>
<path d="M2217 4471 c-49 -14 -88 -29 -88 -34 1 -4 1 -14 1 -21 0 -13 7 -13
51 0 28 9 53 13 56 10 3 -2 -14 -29 -36 -59 -42 -55 -47 -93 -12 -83 9 3 50
15 92 27 65 18 76 24 72 40 -6 22 -5 22 -54 7 -22 -6 -42 -8 -45 -5 -4 3 10
28 30 55 35 48 44 76 29 85 -5 3 -48 -7 -96 -22z"/>
<path d="M3423 4455 c-7 -19 1 -110 10 -107 4 1 122 2 262 2 l256 0 -3 58 -3
57 -258 1 c-194 1 -260 -2 -264 -11z"/>
<path d="M2180 4243 c0 -18 25 -43 43 -43 32 0 55 -61 37 -95 -7 -13 -10 -32
-6 -41 6 -15 20 -5 82 57 78 78 87 104 40 114 -32 6 -196 13 -196 8z m155 -68
c-27 -22 -31 -22 -42 -8 -21 27 -15 33 30 33 l42 0 -30 -25z"/>
<path d="M3420 4165 l0 -55 140 0 140 0 0 55 0 55 -140 0 -140 0 0 -55z"/>
<path d="M2363 4061 c-53 -23 -83 -42 -83 -52 0 -27 11 -28 56 -6 24 11 46 18
50 15 3 -4 -9 -33 -28 -67 -48 -87 -34 -95 76 -45 47 21 86 41 86 44 0 3 -4
11 -9 19 -8 12 -17 11 -58 -7 -26 -11 -49 -19 -51 -17 -3 2 10 28 27 58 31 54
38 82 24 90 -5 3 -45 -12 -90 -32z"/>
<path d="M2454 3863 c-43 -25 -81 -47 -82 -49 -7 -6 51 -95 71 -109 31 -22 90
-19 120 5 40 31 44 77 13 138 -14 28 -29 53 -34 56 -5 3 -44 -15 -88 -41z m94
-38 c17 -36 15 -52 -8 -75 -29 -29 -64 -25 -95 11 -14 17 -25 33 -23 34 10 10
95 55 104 55 6 0 16 -11 22 -25z"/>
<path d="M2549 3661 c-66 -66 -15 -171 82 -171 47 0 89 47 89 100 0 33 -6 48
-29 71 -23 23 -38 29 -71 29 -33 0 -48 -6 -71 -29z m115 -27 c37 -36 6 -104
-48 -104 -48 0 -73 64 -39 102 20 22 66 24 87 2z"/>
<path d="M2739 3411 c-42 -42 -40 -92 5 -137 35 -35 76 -45 76 -20 0 8 -12 21
-27 28 -39 18 -51 59 -29 93 14 22 23 26 54 23 31 -2 40 -9 52 -35 9 -19 21
-32 30 -30 24 4 12 49 -21 80 -42 39 -100 38 -140 -2z"/>
<path d="M2887 3252 c-60 -61 -66 -70 -52 -82 13 -11 20 -9 45 15 l30 29 30
-29 30 -29 -26 -27 c-27 -29 -27 -59 0 -59 8 0 42 30 75 67 55 60 60 68 46 82
-13 13 -18 12 -43 -12 l-28 -27 -29 30 -29 30 27 28 c21 22 24 31 15 40 -7 7
-15 12 -18 12 -3 0 -36 -31 -73 -68z"/>
<path d="M3047 3099 c-51 -56 -64 -76 -56 -86 7 -7 15 -13 19 -13 4 0 35 32
70 71 56 63 61 72 48 85 -13 14 -23 7 -81 -57z"/>
<path d="M3143 3070 c-52 -21 -71 -95 -39 -155 9 -16 16 -37 16 -46 0 -25 45
-61 72 -57 l23 3 -27 24 c-33 29 -36 45 -9 36 26 -8 87 18 100 43 46 87 -45
188 -136 152z m88 -51 c27 -27 21 -67 -14 -93 -26 -19 -30 -19 -55 -5 -37 20
-43 80 -10 103 30 22 54 20 79 -5z"/>
<path d="M3316 2910 c-19 -27 -38 -61 -42 -75 -8 -32 15 -69 57 -91 44 -22 79
-5 123 60 39 56 43 71 22 79 -9 4 -28 -13 -51 -48 -42 -60 -57 -70 -86 -55
-29 16 -23 52 17 110 28 41 33 54 23 61 -22 14 -25 12 -63 -41z"/>
<path d="M3486 2765 c-25 -42 -46 -79 -46 -84 0 -8 53 -46 96 -69 17 -9 24 -9
33 2 9 11 2 19 -34 40 -48 28 -53 37 -32 54 10 8 22 6 46 -9 30 -18 51 -18 51
1 0 4 -16 17 -35 29 -31 18 -34 23 -25 41 11 20 11 20 55 -5 29 -17 46 -22 50
-15 10 16 -8 33 -63 63 l-49 27 -47 -75z"/>
<path d="M3666 2743 c-7 -17 16 -43 37 -43 5 0 -8 -30 -28 -66 -20 -37 -34
-73 -31 -80 11 -30 36 -11 68 51 18 36 36 65 41 65 5 0 18 -5 29 -11 16 -8 22
-8 29 2 10 17 9 18 -72 63 -60 33 -67 35 -73 19z"/>
<path d="M3837 2657 c-3 -7 -21 -47 -41 -90 l-36 -77 67 -30 c77 -35 69 -34
77 -15 4 11 -8 22 -39 37 -45 22 -57 44 -31 54 8 3 29 -2 46 -11 26 -14 34
-14 41 -4 11 18 4 26 -36 39 -39 13 -39 13 -25 41 11 19 11 19 52 -2 29 -15
43 -18 51 -10 15 15 3 25 -65 55 -40 18 -58 22 -61 13z"/>
<path d="M4061 2488 c2 -162 24 -172 124 -59 58 66 64 76 48 85 -14 7 -27 -1
-69 -48 l-51 -56 -7 31 c-3 17 -6 51 -6 74 0 38 -11 55 -36 55 -2 0 -4 -37 -3
-82z"/>
<path d="M4261 2463 c-6 -21 -17 -60 -26 -88 -8 -27 -15 -53 -15 -57 0 -12
134 -48 143 -39 15 15 0 28 -48 41 -44 12 -52 23 -37 48 7 10 15 10 36 2 37
-14 56 -13 56 3 0 8 -18 19 -40 26 -42 12 -45 17 -31 39 6 11 17 11 50 2 41
-11 61 -7 61 10 0 5 -26 17 -57 26 -32 9 -63 19 -70 21 -7 3 -16 -11 -22 -34z"/>
<path d="M4447 2443 c-12 -20 -38 -176 -30 -183 14 -12 117 -29 127 -20 14 14
-3 29 -40 36 -20 4 -38 12 -40 18 -3 7 2 42 9 78 12 58 12 68 0 72 -19 8 -21
7 -26 -1z"/>
<path d="M5687 2432 c-52 -12 -67 -19 -64 -31 2 -9 7 -15 13 -15 5 1 26 5 47
8 22 4 37 3 37 -3 0 -6 -16 -36 -35 -68 -35 -59 -47 -110 -22 -100 7 2 39 10
72 16 82 17 85 18 79 36 -6 16 -15 16 -92 -2 -21 -5 -20 -1 19 71 36 68 45
108 22 105 -4 -1 -39 -8 -76 -17z"/>
<path d="M4617 2323 c-31 -48 -53 -91 -51 -95 10 -16 43 -7 49 13 5 15 12 19
28 15 12 -3 32 -6 45 -6 14 0 26 -8 31 -24 8 -19 51 -45 51 -30 0 4 -52 198
-54 200 -1 1 -11 4 -22 8 -19 6 -29 -5 -77 -81z m82 -20 c1 -16 -5 -23 -18
-23 -30 0 -34 17 -14 50 15 26 19 28 25 13 3 -10 7 -28 7 -40z"/>
<path d="M5510 2399 c-71 -14 -68 -9 -54 -96 7 -43 13 -84 13 -92 1 -11 15
-12 69 -6 77 8 83 10 75 31 -4 11 -16 13 -53 8 -42 -5 -48 -4 -52 14 -6 23 8
32 53 32 22 0 29 5 29 20 0 18 -5 19 -45 13 -36 -5 -46 -3 -51 11 -9 22 -4 25
47 34 30 5 45 13 47 25 4 19 -7 20 -78 6z"/>
<path d="M4810 2369 c0 -16 7 -19 43 -19 24 0 47 -3 50 -7 4 -3 -21 -35 -54
-70 -35 -37 -58 -68 -53 -73 5 -4 44 -11 87 -15 74 -7 77 -7 77 14 0 19 -6 21
-50 21 -27 0 -50 4 -50 8 0 4 25 32 55 62 79 78 76 83 -47 94 -52 4 -58 3 -58
-15z"/>
<path d="M5377 2382 c-16 -3 -17 -11 -11 -71 7 -74 -5 -96 -47 -89 -29 4 -37
21 -44 91 -6 49 -9 57 -27 57 -20 0 -21 -4 -15 -72 5 -62 10 -76 32 -95 36
-31 88 -31 120 2 22 21 25 33 24 87 -1 75 -8 95 -32 90z"/>
<path d="M5019 2341 c-31 -32 -38 -71 -18 -114 13 -29 126 -97 161 -97 26 0
53 22 42 33 -4 3 -19 4 -34 1 -39 -8 -44 9 -10 34 77 57 31 171 -68 172 -35 0
-49 -6 -73 -29z m119 -24 c17 -14 15 -67 -5 -89 -20 -22 -56 -23 -77 -3 -60
60 14 144 82 92z"/>
</g>
</svg>
